<svg width="40" height="40" viewBox="0 0 40 40" fill="none" xmlns="http://www.w3.org/2000/svg">
<path opacity="0.5" d="M20 37C11.9861 37 7.97918 37 5.48959 34.5104C3 32.0208 3 28.0139 3 20C3 11.9861 3 7.97918 5.48959 5.48959C7.97918 3 11.9861 3 20 3C28.0139 3 32.0208 3 34.5104 5.48959C37 7.97918 37 11.9861 37 20C37 28.0139 37 32.0208 34.5104 34.5104C32.0208 37 28.0139 37 20 37Z" fill="#5E73BB"/>
<path fill-rule="evenodd" clip-rule="evenodd" d="M20 13C16.134 13 13 16.134 13 20C13 23.866 16.134 27 20 27C23.866 27 27 23.866 27 20C27 16.134 23.866 13 20 13ZM20 15.2105C17.3548 15.2105 15.2105 17.3548 15.2105 20C15.2105 22.6452 17.3548 24.7895 20 24.7895C22.6452 24.7895 24.7895 22.6452 24.7895 20C24.7895 17.3548 22.6452 15.2105 20 15.2105Z" fill="#5E73BB"/>
</svg>
