<svg width="40" height="40" viewBox="0 0 40 40" fill="none" xmlns="http://www.w3.org/2000/svg">
<path opacity="0.5" d="M22.7146 34.1197L21.8111 35.6462C21.0059 37.0067 18.9942 37.0067 18.1889 35.6462L17.2854 34.1197C16.5846 32.9358 16.2342 32.3438 15.6714 32.0164C15.1085 31.6891 14.3999 31.6769 12.9827 31.6524C10.8904 31.6164 9.57819 31.4882 8.47768 31.0323C6.43578 30.1866 4.81349 28.5643 3.96771 26.5224C3.33337 24.9909 3.33337 23.0495 3.33337 19.1667V17.5C3.33337 12.0443 3.33337 9.31643 4.56137 7.31252C5.2485 6.19123 6.19126 5.24847 7.31255 4.56134C9.31646 3.33334 12.0443 3.33334 17.5 3.33334H22.5C27.9558 3.33334 30.6836 3.33334 32.6875 4.56134C33.8088 5.24847 34.7516 6.19123 35.4387 7.31252C36.6667 9.31643 36.6667 12.0443 36.6667 17.5V19.1667C36.6667 23.0495 36.6667 24.9909 36.0324 26.5224C35.1866 28.5643 33.5643 30.1866 31.5224 31.0323C30.4219 31.4882 29.1096 31.6164 27.0173 31.6524C25.6001 31.6769 24.8915 31.6891 24.3287 32.0164C23.7658 32.3438 23.4154 32.9358 22.7146 34.1197Z" fill="#40B7DD"/>
<path d="M28.3333 18.3334C28.3333 19.2538 27.5871 20 26.6666 20C25.7462 20 25 19.2538 25 18.3334C25 17.4129 25.7462 16.6667 26.6666 16.6667C27.5871 16.6667 28.3333 17.4129 28.3333 18.3334Z" fill="#40B7DD"/>
<path d="M21.6666 18.3334C21.6666 19.2538 20.9204 20 20 20C19.0795 20 18.3333 19.2538 18.3333 18.3334C18.3333 17.4129 19.0795 16.6667 20 16.6667C20.9204 16.6667 21.6666 17.4129 21.6666 18.3334Z" fill="#40B7DD"/>
<path d="M15 18.3334C15 19.2538 14.2538 20 13.3333 20C12.4128 20 11.6666 19.2538 11.6666 18.3334C11.6666 17.4129 12.4128 16.6667 13.3333 16.6667C14.2538 16.6667 15 17.4129 15 18.3334Z" fill="#40B7DD"/>
</svg>
