<svg width="40" height="40" viewBox="0 0 40 40" fill="none" xmlns="http://www.w3.org/2000/svg">
<path opacity="0.5" d="M36.6667 20C36.6667 29.2048 29.2048 36.6667 20 36.6667C10.7953 36.6667 3.33334 29.2048 3.33334 20C3.33334 10.7953 10.7953 3.33334 20 3.33334C29.2048 3.33334 36.6667 10.7953 36.6667 20Z" fill="#4F9C2B"/>
<path d="M26.7172 14.9494C27.2054 15.4376 27.2054 16.229 26.7172 16.7172L18.3839 25.0505C17.8957 25.5387 17.1043 25.5387 16.6161 25.0505L13.2828 21.7172C12.7946 21.229 12.7946 20.4376 13.2828 19.9494C13.7709 19.4613 14.5624 19.4613 15.0505 19.9494L17.5 22.3989L21.2247 18.6742L24.9494 14.9494C25.4376 14.4613 26.229 14.4613 26.7172 14.9494Z" fill="#4F9C2B"/>
</svg>
