<svg width="40" height="40" viewBox="0 0 40 40" fill="none" xmlns="http://www.w3.org/2000/svg">
<path d="M12.673 7.67299C15.5661 4.77989 17.0126 3.33334 18.8101 3.33334C20.6077 3.33334 22.0542 4.77989 24.9473 7.67299L32.312 15.0376C35.2051 17.9307 36.6516 19.3773 36.6516 21.1748C36.6516 22.9723 35.2051 24.4189 32.312 27.312C29.4189 30.2051 27.9723 31.6516 26.1748 31.6516C24.3772 31.6516 22.9307 30.2051 20.0376 27.312L12.673 19.9474C9.77986 17.0543 8.33331 15.6077 8.33331 13.8102C8.33331 12.0126 9.77986 10.5661 12.673 7.67299Z" fill="#F28708"/>
<g opacity="0.5">
<path d="M13.9077 21.1821L4.70966 30.3802C4.13892 30.9509 3.85355 31.2363 3.68215 31.5332C3.21703 32.3388 3.21703 33.3313 3.68215 34.137C3.85355 34.4338 4.13891 34.7192 4.70962 35.2899C5.28036 35.8606 5.56577 36.1461 5.86264 36.3174C6.66826 36.7826 7.66082 36.7826 8.46643 36.3175C8.7633 36.1461 9.04867 35.8607 9.61941 35.2899L18.8175 26.0919L13.9077 21.1821Z" fill="#F28708"/>
<path d="M31.0919 13.8175L31.7133 13.1961C32.284 12.6253 32.5694 12.34 32.7408 12.0431C33.2059 11.2375 33.2059 10.2449 32.7408 9.4393C32.5694 9.14243 32.284 8.85706 31.7133 8.28632C31.1425 7.71558 30.8572 7.43021 30.5603 7.25881C29.7547 6.79369 28.7621 6.79369 27.9565 7.25881C27.6596 7.43021 27.3743 7.71558 26.8035 8.28632L26.1821 8.90774L31.0919 13.8175Z" fill="#F28708"/>
</g>
</svg>
